<?xml version="1.0" encoding="UTF-8"?>
<!--Generator: Apple Native CoreSVG 175.5-->
<!DOCTYPE svg
PUBLIC "-//W3C//DTD SVG 1.1//EN"
       "http://www.w3.org/Graphics/SVG/1.1/DTD/svg11.dtd">
<svg version="1.1" xmlns="http://www.w3.org/2000/svg" xmlns:xlink="http://www.w3.org/1999/xlink" width="3300" height="2200">
 <!--glyph: "uni1002AB.medium", point size: 100.0, font version: "18.0d12e2", template writer version: "101"-->
 <g id="Notes">
  <rect height="2200" id="artboard" style="fill:white;opacity:1" width="3300" x="0" y="0"/>
  <line style="fill:none;stroke:black;opacity:1;stroke-width:0.5;" x1="263" x2="3036" y1="292" y2="292"/>
  <text style="stroke:none;fill:black;font-family:sans-serif;font-size:13;font-weight:bold;" transform="matrix(1 0 0 1 263 322)">Weight/Scale Variations</text>
  <text style="stroke:none;fill:black;font-family:sans-serif;font-size:13;text-anchor:middle;" transform="matrix(1 0 0 1 559.711 322)">Ultralight</text>
  <text style="stroke:none;fill:black;font-family:sans-serif;font-size:13;text-anchor:middle;" transform="matrix(1 0 0 1 856.422 322)">Thin</text>
  <text style="stroke:none;fill:black;font-family:sans-serif;font-size:13;text-anchor:middle;" transform="matrix(1 0 0 1 1153.13 322)">Light</text>
  <text style="stroke:none;fill:black;font-family:sans-serif;font-size:13;text-anchor:middle;" transform="matrix(1 0 0 1 1449.84 322)">Regular</text>
  <text style="stroke:none;fill:black;font-family:sans-serif;font-size:13;text-anchor:middle;" transform="matrix(1 0 0 1 1746.56 322)">Medium</text>
  <text style="stroke:none;fill:black;font-family:sans-serif;font-size:13;text-anchor:middle;" transform="matrix(1 0 0 1 2043.27 322)">Semibold</text>
  <text style="stroke:none;fill:black;font-family:sans-serif;font-size:13;text-anchor:middle;" transform="matrix(1 0 0 1 2339.98 322)">Bold</text>
  <text style="stroke:none;fill:black;font-family:sans-serif;font-size:13;text-anchor:middle;" transform="matrix(1 0 0 1 2636.69 322)">Heavy</text>
  <text style="stroke:none;fill:black;font-family:sans-serif;font-size:13;text-anchor:middle;" transform="matrix(1 0 0 1 2933.4 322)">Black</text>
  <line style="fill:none;stroke:black;opacity:1;stroke-width:0.5;" x1="263" x2="3036" y1="1903" y2="1903"/>
  <g transform="matrix(1 0 0 1 263 1933)">
   <path d="M9.24805 0.830078C13.5547 0.830078 17.1387-2.74414 17.1387-7.05078C17.1387-11.3574 13.5449-14.9316 9.23828-14.9316C4.94141-14.9316 1.36719-11.3574 1.36719-7.05078C1.36719-2.74414 4.95117 0.830078 9.24805 0.830078ZM9.24805-0.654297C5.70312-0.654297 2.87109-3.49609 2.87109-7.05078C2.87109-10.6055 5.69336-13.4473 9.23828-13.4473C12.793-13.4473 15.6445-10.6055 15.6445-7.05078C15.6445-3.49609 12.8027-0.654297 9.24805-0.654297ZM5.6543-7.05078C5.6543-6.62109 5.95703-6.32812 6.40625-6.32812L8.50586-6.32812L8.50586-4.20898C8.50586-3.76953 8.79883-3.4668 9.22852-3.4668C9.67773-3.4668 9.9707-3.76953 9.9707-4.20898L9.9707-6.32812L12.0898-6.32812C12.5293-6.32812 12.832-6.62109 12.832-7.05078C12.832-7.49023 12.5293-7.79297 12.0898-7.79297L9.9707-7.79297L9.9707-9.90234C9.9707-10.3516 9.67773-10.6543 9.22852-10.6543C8.79883-10.6543 8.50586-10.3516 8.50586-9.90234L8.50586-7.79297L6.40625-7.79297C5.95703-7.79297 5.6543-7.49023 5.6543-7.05078Z"/>
  </g>
  <g transform="matrix(1 0 0 1 281.867 1933)">
   <path d="M11.709 2.91016C17.1582 2.91016 21.6699-1.61133 21.6699-7.05078C21.6699-12.5 17.1484-17.0117 11.6992-17.0117C6.25977-17.0117 1.74805-12.5 1.74805-7.05078C1.74805-1.61133 6.26953 2.91016 11.709 2.91016ZM11.709 1.25C7.09961 1.25 3.41797-2.44141 3.41797-7.05078C3.41797-11.6602 7.08984-15.3516 11.6992-15.3516C16.3086-15.3516 20.0098-11.6602 20.0098-7.05078C20.0098-2.44141 16.3184 1.25 11.709 1.25ZM7.17773-7.05078C7.17773-6.57227 7.50977-6.25 8.00781-6.25L10.8789-6.25L10.8789-3.36914C10.8789-2.88086 11.2109-2.53906 11.6895-2.53906C12.1777-2.53906 12.5195-2.87109 12.5195-3.36914L12.5195-6.25L15.4004-6.25C15.8887-6.25 16.2305-6.57227 16.2305-7.05078C16.2305-7.53906 15.8887-7.88086 15.4004-7.88086L12.5195-7.88086L12.5195-10.752C12.5195-11.25 12.1777-11.5918 11.6895-11.5918C11.2109-11.5918 10.8789-11.25 10.8789-10.752L10.8789-7.88086L8.00781-7.88086C7.50977-7.88086 7.17773-7.53906 7.17773-7.05078Z"/>
  </g>
  <g transform="matrix(1 0 0 1 305.646 1933)">
   <path d="M14.9707 5.66406C21.9336 5.66406 27.6953-0.0976562 27.6953-7.05078C27.6953-14.0137 21.9238-19.7754 14.9609-19.7754C8.00781-19.7754 2.25586-14.0137 2.25586-7.05078C2.25586-0.0976562 8.01758 5.66406 14.9707 5.66406ZM14.9707 3.84766C8.93555 3.84766 4.08203-1.01562 4.08203-7.05078C4.08203-13.0957 8.92578-17.9492 14.9609-17.9492C21.0059-17.9492 25.8691-13.0957 25.8691-7.05078C25.8691-1.01562 21.0156 3.84766 14.9707 3.84766ZM9.19922-7.05078C9.19922-6.5332 9.57031-6.17188 10.1172-6.17188L14.0625-6.17188L14.0625-2.2168C14.0625-1.67969 14.4336-1.29883 14.9512-1.29883C15.4883-1.29883 15.8594-1.66992 15.8594-2.2168L15.8594-6.17188L19.8145-6.17188C20.3516-6.17188 20.7324-6.5332 20.7324-7.05078C20.7324-7.59766 20.3613-7.96875 19.8145-7.96875L15.8594-7.96875L15.8594-11.9141C15.8594-12.4609 15.4883-12.8418 14.9512-12.8418C14.4336-12.8418 14.0625-12.4609 14.0625-11.9141L14.0625-7.96875L10.1172-7.96875C9.57031-7.96875 9.19922-7.59766 9.19922-7.05078Z"/>
  </g>
  <text style="stroke:none;fill:black;font-family:sans-serif;font-size:13;font-weight:bold;" transform="matrix(1 0 0 1 263 1953)">Design Variations</text>
  <text style="stroke:none;fill:black;font-family:sans-serif;font-size:13;" transform="matrix(1 0 0 1 263 1971)">Symbols are supported in up to nine weights and three scales.</text>
  <text style="stroke:none;fill:black;font-family:sans-serif;font-size:13;" transform="matrix(1 0 0 1 263 1989)">For optimal layout with text and other symbols, vertically align</text>
  <text style="stroke:none;fill:black;font-family:sans-serif;font-size:13;" transform="matrix(1 0 0 1 263 2007)">symbols with the adjacent text.</text>
  <line style="fill:none;stroke:#00AEEF;stroke-width:0.5;opacity:1.0;" x1="776" x2="776" y1="1919" y2="1933"/>
  <g transform="matrix(1 0 0 1 776 1933)">
   <path d="M3.31055 0.15625C3.82812 0.15625 4.08203-0.0390625 4.26758-0.585938L5.52734-4.0332L11.2891-4.0332L12.5488-0.585938C12.7344-0.0390625 12.9883 0.15625 13.4961 0.15625C14.0137 0.15625 14.3457-0.15625 14.3457-0.644531C14.3457-0.810547 14.3164-0.966797 14.2383-1.17188L9.6582-13.3691C9.43359-13.9648 9.0332-14.2676 8.4082-14.2676C7.80273-14.2676 7.39258-13.9746 7.17773-13.3789L2.59766-1.16211C2.51953-0.957031 2.49023-0.800781 2.49023-0.634766C2.49023-0.146484 2.80273 0.15625 3.31055 0.15625ZM6.00586-5.51758L8.37891-12.0898L8.42773-12.0898L10.8008-5.51758Z"/>
  </g>
  <line style="fill:none;stroke:#00AEEF;stroke-width:0.5;opacity:1.0;" x1="793.197" x2="793.197" y1="1919" y2="1933"/>
  <text style="stroke:none;fill:black;font-family:sans-serif;font-size:13;font-weight:bold;" transform="matrix(1 0 0 1 776 1953)">Margins</text>
  <text style="stroke:none;fill:black;font-family:sans-serif;font-size:13;" transform="matrix(1 0 0 1 776 1971)">Leading and trailing margins on the left and right side of each symbol</text>
  <text style="stroke:none;fill:black;font-family:sans-serif;font-size:13;" transform="matrix(1 0 0 1 776 1989)">can be adjusted by modifying the x-location of the margin guidelines.</text>
  <text style="stroke:none;fill:black;font-family:sans-serif;font-size:13;" transform="matrix(1 0 0 1 776 2007)">Modifications are automatically applied proportionally to all</text>
  <text style="stroke:none;fill:black;font-family:sans-serif;font-size:13;" transform="matrix(1 0 0 1 776 2025)">scales and weights.</text>
  <g transform="matrix(1 0 0 1 1289 1933)">
   <path d="M2.8418 1.86523L4.54102 3.57422C5.40039 4.44336 6.38672 4.38477 7.31445 3.35938L18.0078-8.42773L17.041-9.4043L6.42578 2.27539C6.07422 2.67578 5.74219 2.77344 5.27344 2.30469L4.10156 1.14258C3.63281 0.683594 3.74023 0.341797 4.14062-0.0195312L15.6152-10.8203L14.6387-11.7871L3.04688-0.898438C2.06055 0.0195312 1.98242 0.996094 2.8418 1.86523ZM9.25781-16.3281C8.83789-15.918 8.80859-15.3418 9.04297-14.9512C9.27734-14.5898 9.73633-14.3555 10.3809-14.5215C11.8457-14.8633 13.3691-14.9219 14.7949-13.9844L14.209-12.5293C13.8672-11.6992 14.043-11.1133 14.5801-10.5664L16.875-8.25195C17.3633-7.76367 17.7734-7.74414 18.3398-7.8418L19.4043-8.03711L20.0684-7.36328L20.0293-6.80664C19.9902-6.30859 20.1172-5.92773 20.6055-5.44922L21.3672-4.70703C21.8457-4.22852 22.4609-4.19922 22.9297-4.66797L25.8398-7.58789C26.3086-8.05664 26.2891-8.65234 25.8105-9.13086L25.0391-9.89258C24.5605-10.3711 24.1895-10.5273 23.7109-10.4883L23.1348-10.4395L22.4902-11.0742L22.7344-12.1973C22.8613-12.7637 22.7051-13.2031 22.1191-13.7891L19.9219-15.9766C16.582-19.2969 12.1484-19.2188 9.25781-16.3281ZM10.752-15.957C13.1836-17.7344 16.4746-17.4316 18.7012-15.2051L21.1328-12.793C21.3672-12.5586 21.4062-12.373 21.3379-12.0312L21.0156-10.5469L22.5195-9.0625L23.5059-9.12109C23.7598-9.13086 23.8379-9.11133 24.0332-8.91602L24.6094-8.33984L22.168-5.89844L21.5918-6.47461C21.3965-6.66992 21.3672-6.74805 21.377-7.01172L21.4453-7.98828L19.9512-9.47266L18.4277-9.21875C18.1055-9.15039 17.959-9.17969 17.7148-9.41406L15.7129-11.416C15.459-11.6504 15.4297-11.8164 15.5859-12.1875L16.4648-14.2773C14.9023-15.7324 12.8711-16.3574 10.8398-15.7617C10.6836-15.7227 10.625-15.8496 10.752-15.957Z"/>
  </g>
  <text style="stroke:none;fill:black;font-family:sans-serif;font-size:13;font-weight:bold;" transform="matrix(1 0 0 1 1289 1953)">Exporting</text>
  <text style="stroke:none;fill:black;font-family:sans-serif;font-size:13;" transform="matrix(1 0 0 1 1289 1971)">Symbols should be outlined when exporting to ensure the</text>
  <text style="stroke:none;fill:black;font-family:sans-serif;font-size:13;" transform="matrix(1 0 0 1 1289 1989)">design is preserved when submitting to Xcode.</text>
  <text id="template-version" style="stroke:none;fill:black;font-family:sans-serif;font-size:13;text-anchor:end;" transform="matrix(1 0 0 1 3036 1933)">Template v.2.0</text>
  <text style="stroke:none;fill:black;font-family:sans-serif;font-size:13;text-anchor:end;" transform="matrix(1 0 0 1 3036 1951)">Requires Xcode 12 or greater</text>
  <text id="descriptive-name" style="stroke:none;fill:black;font-family:sans-serif;font-size:13;text-anchor:end;" transform="matrix(1 0 0 1 3036 1969)">Generated from magnifyingglass</text>
  <text style="stroke:none;fill:black;font-family:sans-serif;font-size:13;text-anchor:end;" transform="matrix(1 0 0 1 3036 1987)">Typeset at 100 points</text>
  <text style="stroke:none;fill:black;font-family:sans-serif;font-size:13;" transform="matrix(1 0 0 1 263 726)">Small</text>
  <text style="stroke:none;fill:black;font-family:sans-serif;font-size:13;" transform="matrix(1 0 0 1 263 1156)">Medium</text>
  <text style="stroke:none;fill:black;font-family:sans-serif;font-size:13;" transform="matrix(1 0 0 1 263 1586)">Large</text>
 </g>
 <g id="Guides">
  <g id="H-reference" style="fill:#27AAE1;stroke:none;" transform="matrix(1 0 0 1 339 696)">
   <path d="M0.993654 0L3.63775 0L29.3281-67.1323L30.0303-67.1323L30.0303-70.459L28.1226-70.459ZM11.6885-24.4799L46.9815-24.4799L46.2315-26.7285L12.4385-26.7285ZM55.1196 0L57.7637 0L30.6382-70.459L29.4326-70.459L29.4326-67.1323Z"/>
  </g>
  <line id="Baseline-S" style="fill:none;stroke:#27AAE1;opacity:1;stroke-width:0.5;" x1="263" x2="3036" y1="696" y2="696"/>
  <line id="Capline-S" style="fill:none;stroke:#27AAE1;opacity:1;stroke-width:0.5;" x1="263" x2="3036" y1="625.541" y2="625.541"/>
  <g id="H-reference" style="fill:#27AAE1;stroke:none;" transform="matrix(1 0 0 1 339 1126)">
   <path d="M0.993654 0L3.63775 0L29.3281-67.1323L30.0303-67.1323L30.0303-70.459L28.1226-70.459ZM11.6885-24.4799L46.9815-24.4799L46.2315-26.7285L12.4385-26.7285ZM55.1196 0L57.7637 0L30.6382-70.459L29.4326-70.459L29.4326-67.1323Z"/>
  </g>
  <line id="Baseline-M" style="fill:none;stroke:#27AAE1;opacity:1;stroke-width:0.5;" x1="263" x2="3036" y1="1126" y2="1126"/>
  <line id="Capline-M" style="fill:none;stroke:#27AAE1;opacity:1;stroke-width:0.5;" x1="263" x2="3036" y1="1055.54" y2="1055.54"/>
  <g id="H-reference" style="fill:#27AAE1;stroke:none;" transform="matrix(1 0 0 1 339 1556)">
   <path d="M0.993654 0L3.63775 0L29.3281-67.1323L30.0303-67.1323L30.0303-70.459L28.1226-70.459ZM11.6885-24.4799L46.9815-24.4799L46.2315-26.7285L12.4385-26.7285ZM55.1196 0L57.7637 0L30.6382-70.459L29.4326-70.459L29.4326-67.1323Z"/>
  </g>
  <line id="Baseline-L" style="fill:none;stroke:#27AAE1;opacity:1;stroke-width:0.5;" x1="263" x2="3036" y1="1556" y2="1556"/>
  <line id="Capline-L" style="fill:none;stroke:#27AAE1;opacity:1;stroke-width:0.5;" x1="263" x2="3036" y1="1485.54" y2="1485.54"/>
  <line id="left-margin" style="fill:none;stroke:#00AEEF;stroke-width:0.5;opacity:1.0;" x1="1390.94" x2="1390.94" y1="1030.79" y2="1150.12"/>
  <line id="right-margin" style="fill:none;stroke:#00AEEF;stroke-width:0.5;opacity:1.0;" x1="1508.75" x2="1508.75" y1="1030.79" y2="1150.12"/>
 </g>
 <g id="Symbols">
  <g id="Black-L" transform="matrix(1 0 0 1 2854.49 1556)">
   <path d="M14.4756-45.3967C14.4756-15.1085 38.9983 9.39339 69.2865 9.39339C78.2802 9.39339 86.68 7.17432 94.0836 3.29714L115.92 25.1554C118.992 28.2084 123.168 29.6878 127.424 29.6878C136.491 29.6878 143.341 22.7309 143.341 13.7279C143.341 9.57027 141.881 5.53349 138.772 2.38209L117.211-19.1997C121.592-26.9005 124.075-35.8413 124.075-45.3967C124.075-75.6837 99.5735-100.206 69.2865-100.206C38.9983-100.206 14.4756-75.6837 14.4756-45.3967ZM36.8246-45.3967C36.8246-63.3383 51.3437-77.8574 69.2865-77.8574C87.2073-77.8574 101.747-63.3383 101.747-45.3967C101.747-27.4747 87.2073-12.9348 69.2865-12.9348C51.3437-12.9348 36.8246-27.4747 36.8246-45.3967Z"/>
  </g>
  <g id="Heavy-L" transform="matrix(1 0 0 1 2558.52 1556)">
   <path d="M14.4756-45.8335C14.4756-16.1962 38.4931 7.79121 68.1305 7.79121C77.5873 7.79121 86.377 5.26112 93.9741 0.876081L118.098 25.0356C120.773 27.6866 124.387 28.9736 128.08 28.9736C135.967 28.9736 141.871 22.9315 141.871 15.1169C141.871 11.4936 140.579 8.00552 137.924 5.28424L114.039-18.6308C118.937-26.5025 121.75-35.8194 121.75-45.8335C121.75-75.4653 97.7622-99.4828 68.1305-99.4828C38.4931-99.4828 14.4756-75.4653 14.4756-45.8335ZM33.9233-45.8335C33.9233-64.7352 49.2232-80.0352 68.1305-80.0352C87.002-80.0352 102.332-64.7352 102.332-45.8335C102.332-26.9564 87.002-11.6263 68.1305-11.6263C49.2232-11.6263 33.9233-26.9564 33.9233-45.8335Z"/>
  </g>
  <g id="Bold-L" transform="matrix(1 0 0 1 2262.73 1556)">
   <path d="M14.4756-46.3864C14.4756-17.5707 37.8557 5.77143 66.6714 5.77143C76.6597 5.77143 85.8962 2.87202 93.7017-2.11327L120.601 24.8373C122.792 27.0038 125.736 28.0676 128.76 28.0676C135.247 28.0676 140.02 23.1104 140.02 16.7188C140.02 13.7415 138.936 10.9074 136.812 8.69398L110.105-18.0506C115.611-26.1001 118.816-35.8484 118.816-46.3864C118.816-75.1888 95.4738-98.569 66.6714-98.569C37.8557-98.569 14.4756-75.1888 14.4756-46.3864ZM30.3645-46.3864C30.3645-66.4343 46.6102-82.6801 66.6714-82.6801C86.6813-82.6801 102.965-66.4343 102.965-46.3864C102.965-26.3632 86.6813-10.0795 66.6714-10.0795C46.6102-10.0795 30.3645-26.3632 30.3645-46.3864Z"/>
  </g>
  <g id="Semibold-L" transform="matrix(1 0 0 1 1966.66 1556)">
   <path d="M14.4756-46.7675C14.4756-18.5184 37.4163 4.379 65.6655 4.379C76.0203 4.379 85.5648 1.22498 93.514-4.17411L122.327 24.7007C124.184 26.5332 126.667 27.4429 129.229 27.4429C134.751 27.4429 138.744 23.2337 138.744 17.8232C138.744 15.2912 137.803 12.9079 136.045 11.0446L107.393-17.6506C113.318-25.8227 116.794-35.8683 116.794-46.7675C116.794-74.9982 93.8962-97.939 65.6655-97.939C37.4163-97.939 14.4756-74.9982 14.4756-46.7675ZM27.9111-46.7675C27.9111-67.6057 44.8089-84.5035 65.6655-84.5035C86.4603-84.5035 103.401-67.6057 103.401-46.7675C103.401-25.9543 86.4603-9.01315 65.6655-9.01315C44.8089-9.01315 27.9111-25.9543 27.9111-46.7675Z"/>
  </g>
  <g id="Medium-L" transform="matrix(1 0 0 1 1670.43 1556)">
   <path d="M14.4756-47.0565C14.4756-19.2369 37.0831 3.32321 64.9028 3.32321C75.5354 3.32321 85.3134-0.0238707 93.3716-5.73673L123.635 24.5971C125.24 26.1763 127.372 26.9693 129.585 26.9693C134.374 26.9693 137.776 23.3272 137.776 18.6606C137.776 16.4662 136.944 14.4247 135.463 12.827L105.337-17.3474C111.579-25.6124 115.26-35.8835 115.26-47.0565C115.26-74.8537 92.7-97.4613 64.9028-97.4613C37.0831-97.4613 14.4756-74.8537 14.4756-47.0565ZM26.0508-47.0565C26.0508-68.4939 43.443-85.886 64.9028-85.886C86.2927-85.886 103.732-68.4939 103.732-47.0565C103.732-25.6442 86.2927-8.20461 64.9028-8.20461C43.443-8.20461 26.0508-25.6442 26.0508-47.0565Z"/>
  </g>
  <g id="Regular-L" transform="matrix(1 0 0 1 1374.35 1556)">
   <path d="M14.4756-47.4335C14.4756-20.1741 36.6485 1.94608 63.9079 1.94608C74.9029 1.94608 84.9856-1.65281 93.1859-7.77492L125.342 24.4619C126.616 25.7108 128.292 26.3516 130.049 26.3516C133.883 26.3516 136.514 23.4492 136.514 19.7528C136.514 17.9989 135.823 16.4032 134.705 15.1518L102.654-16.9518C109.312-25.338 113.26-35.9033 113.26-47.4335C113.26-74.6653 91.1397-96.8382 63.9079-96.8382C36.6485-96.8382 14.4756-74.6653 14.4756-47.4335ZM23.6244-47.4335C23.6244-69.6524 41.6614-87.6894 63.9079-87.6894C86.074-87.6894 104.164-69.6524 104.164-47.4335C104.164-25.2398 86.074-7.14999 63.9079-7.14999C41.6614-7.14999 23.6244-25.2398 23.6244-47.4335Z"/>
  </g>
  <g id="Light-L" transform="matrix(1 0 0 1 1078.37 1556)">
   <path d="M14.4756-47.8916C14.4756-21.3001 36.1332 0.323834 62.7247 0.323834C73.8151 0.323834 83.9741-3.42774 92.1171-9.77888L125.819 24.0039C126.807 25.0046 128.197 25.5882 129.667 25.5882C132.929 25.5882 135.045 23.1247 135.045 20.0964C135.045 18.686 134.487 17.3766 133.541 16.316L99.906-17.3526C106.773-25.6434 110.893-36.285 110.893-47.8916C110.893-74.4362 89.2693-96.0939 62.7247-96.0939C36.1332-96.0939 14.4756-74.4362 14.4756-47.8916ZM21.3914-47.8916C21.3914-70.6257 39.9438-89.178 62.7247-89.178C85.4251-89.178 104.011-70.6257 104.011-47.8916C104.011-25.1443 85.4251-6.55835 62.7247-6.55835C39.9438-6.55835 21.3914-25.1443 21.3914-47.8916Z"/>
  </g>
  <g id="Thin-L" transform="matrix(1 0 0 1 782.634 1556)">
   <path d="M14.4756-48.4974C14.4756-22.7894 35.4517-1.82172 61.1597-1.82172C72.3763-1.82172 82.6363-5.77523 90.7036-12.4293L126.45 23.398C127.06 24.0707 128.071 24.5785 129.162 24.5785C131.667 24.5785 133.101 22.6956 133.101 20.5507C133.101 19.5947 132.72 18.6639 132.001 17.8558L96.2712-17.8827C103.416-26.0473 107.763-36.7898 107.763-48.4974C107.763-74.1333 86.7956-95.1095 61.1597-95.1095C35.4517-95.1095 14.4756-74.1333 14.4756-48.4974ZM18.4382-48.4974C18.4382-71.913 37.672-91.1469 61.1597-91.1469C84.5669-91.1469 103.809-71.913 103.809-48.4974C103.809-25.0181 84.5669-5.77585 61.1597-5.77585C37.672-5.77585 18.4382-25.0181 18.4382-48.4974Z"/>
  </g>
  <g id="Ultralight-L" transform="matrix(1 0 0 1 486.42 1556)">
   <path d="M14.4756-48.8077C14.4756-23.5522 35.1026-2.92066 60.3581-2.92066C71.6393-2.92066 81.9511-6.9776 89.9796-13.7868L126.774 23.0878C127.189 23.5923 128.006 24.0613 128.904 24.0613C131.021 24.0613 132.106 22.4758 132.106 20.7834C132.106 20.0601 131.815 19.3233 131.213 18.6444L94.4094-18.1542C101.697-26.2541 106.16-37.0484 106.16-48.8077C106.16-73.9782 85.5286-94.6052 60.3581-94.6052C35.1026-94.6052 14.4756-73.9782 14.4756-48.8077ZM16.9255-48.8077C16.9255-72.5724 36.5084-92.1553 60.3581-92.1553C84.1273-92.1553 103.706-72.5724 103.706-48.8077C103.706-24.9535 84.1273-5.37506 60.3581-5.37506C36.5084-5.37506 16.9255-24.9535 16.9255-48.8077Z"/>
  </g>
  <g id="Black-M" transform="matrix(1 0 0 1 2871.73 1126)">
   <path d="M11.2148-42.7931C11.2148-18.8588 30.578 0.498897 54.5123 0.498897C61.095 0.498897 67.278-0.973708 72.8398-3.57207L88.0007 11.5941C90.6837 14.2712 94.3633 15.5751 98.1053 15.5751C106.067 15.5751 112.117 9.45849 112.117 1.55268C112.117-2.08112 110.859-5.64136 108.084-8.42667L93.1625-23.3537C96.1402-29.1601 97.8046-35.7741 97.8046-42.7931C97.8046-66.7277 78.4469-86.0909 54.5123-86.0909C30.578-86.0909 11.2148-66.7277 11.2148-42.7931ZM30.7206-42.7931C30.7206-55.9379 41.3678-66.5852 54.5123-66.5852C67.6517-66.5852 78.3044-55.9379 78.3044-42.7931C78.3044-29.6541 67.6517-19.0013 54.5123-19.0013C41.3678-19.0013 30.7206-29.6541 30.7206-42.7931Z"/>
  </g>
  <g id="Heavy-M" transform="matrix(1 0 0 1 2575.67 1126)">
   <path d="M11.2148-43.1779C11.2148-19.8181 30.1317-0.917687 53.4914-0.917687C60.518-0.917687 67.0751-2.68024 72.8314-5.75395L90.0859 11.5192C92.4071 13.8263 95.5633 14.9473 98.7818 14.9473C105.642 14.9473 110.815 9.68452 110.815 2.87881C110.815-0.264308 109.71-3.31457 107.362-5.69703L90.315-22.7606C93.7789-28.7429 95.7493-35.7174 95.7493-43.1779C95.7493-66.5353 76.8489-85.4522 53.4914-85.4522C30.1317-85.4522 11.2148-66.5353 11.2148-43.1779ZM28.0903-43.1779C28.0903-57.2137 39.4533-68.5768 53.4914-68.5768C67.5108-68.5768 78.8903-57.2137 78.8903-43.1779C78.8903-29.1562 67.5108-17.7767 53.4914-17.7767C39.4533-17.7767 28.0903-29.1562 28.0903-43.1779Z"/>
  </g>
  <g id="Bold-M" transform="matrix(1 0 0 1 2279.69 1126)">
   <path d="M11.2148-43.6083C11.2148-20.8913 29.6324-2.50234 52.3494-2.50234C59.8727-2.50234 66.8482-4.58924 72.8219-8.1947L92.4184 11.4355C94.3349 13.3286 96.9056 14.245 99.5385 14.245C105.168 14.245 109.359 9.93736 109.359 4.36227C109.359 1.76806 108.424-0.711734 106.555-2.64353L87.1296-22.0972C91.1375-28.2761 93.4502-35.654 93.4502-43.6083C93.4502-66.3201 75.0613-84.7377 52.3494-84.7377C29.6324-84.7377 11.2148-66.3201 11.2148-43.6083ZM25.1479-43.6083C25.1479-58.6408 37.3117-70.8046 52.3494-70.8046C67.3533-70.8046 79.5457-58.6408 79.5457-43.6083C79.5457-28.5992 67.3533-16.4068 52.3494-16.4068C37.3117-16.4068 25.1479-28.5992 25.1479-43.6083Z"/>
  </g>
  <g id="Semibold-M" transform="matrix(1 0 0 1 1983.48 1126)">
   <path d="M11.2148-43.905C11.2148-21.6311 29.2882-3.59479 51.5621-3.59479C59.4277-3.59479 66.6917-5.9053 72.8154-9.87734L94.0264 11.3778C95.664 12.9854 97.831 13.7609 100.06 13.7609C104.841 13.7609 108.355 10.1117 108.355 5.38496C108.355 3.16916 107.538 1.08265 105.998-0.538469L84.9336-21.6398C89.3165-27.9544 91.8652-35.6103 91.8652-43.905C91.8652-66.1718 73.8289-84.2451 51.5621-84.2451C29.2882-84.2451 11.2148-66.1718 11.2148-43.905ZM23.1195-43.905C23.1195-59.6246 35.8353-72.3405 51.5621-72.3405C67.2447-72.3405 79.9976-59.6246 79.9976-43.905C79.9976-28.2153 67.2447-15.4624 51.5621-15.4624C35.8353-15.4624 23.1195-28.2153 23.1195-43.905Z"/>
  </g>
  <g id="Medium-M" transform="matrix(1 0 0 1 1687.15 1126)">
   <path d="M11.2148-44.13C11.2148-22.1921 29.0272-4.42313 50.9651-4.42313C59.0904-4.42313 66.5731-6.90319 72.8105-11.1532L95.2457 11.334C96.6717 12.7252 98.5326 13.3938 100.456 13.3938C104.593 13.3938 107.594 10.2438 107.594 6.1604C107.594 4.23153 106.866 2.44322 105.576 1.05768L83.2685-21.293C87.9358-27.7104 90.6634-35.5772 90.6634-44.13C90.6634-66.0593 72.8944-83.8717 50.9651-83.8717C29.0272-83.8717 11.2148-66.0593 11.2148-44.13ZM21.5814-44.13C21.5814-60.3706 34.7159-73.5051 50.9651-73.5051C67.1624-73.5051 80.3402-60.3706 80.3402-44.13C80.3402-27.9241 67.1624-14.7463 50.9651-14.7463C34.7159-14.7463 21.5814-27.9241 21.5814-44.13Z"/>
  </g>
  <g id="Regular-M" transform="matrix(1 0 0 1 1390.94 1126)">
   <path d="M11.2148-44.4234C11.2148-22.9238 28.6868-5.50358 50.1865-5.50358C58.6503-5.50358 66.4183-8.20478 72.8041-12.8173L96.836 11.277C97.9862 12.3859 99.4478 12.915 100.972 12.915C104.269 12.915 106.601 10.4162 106.601 7.17185C106.601 5.61724 105.989 4.21789 105.025 3.13961L81.0967-20.8406C86.1348-27.3922 89.0958-35.534 89.0958-44.4234C89.0958-65.9125 71.6756-83.3845 50.1865-83.3845C28.6868-83.3845 11.2148-65.9125 11.2148-44.4234ZM19.5753-44.4234C19.5753-61.3437 33.2557-75.0241 50.1865-75.0241C67.0549-75.0241 80.7871-61.3437 80.7871-44.4234C80.7871-27.5444 67.0549-13.8123 50.1865-13.8123C33.2557-13.8123 19.5753-27.5444 19.5753-44.4234Z"/>
  </g>
  <g id="Light-M" transform="matrix(1 0 0 1 1094.88 1126)">
   <path d="M11.2148-44.8341C11.2148-23.9333 28.2248-6.95801 49.1256-6.95801C57.675-6.95801 65.5115-9.7961 71.8459-14.614L97.2638 10.8663C98.1573 11.7528 99.3623 12.2305 100.63 12.2305C103.413 12.2305 105.283 10.1254 105.283 7.47985C105.283 6.23323 104.792 5.09055 103.981 4.18338L78.6327-21.1999C83.859-27.6659 86.974-35.8762 86.974-44.8341C86.974-65.7072 69.9987-82.7172 49.1256-82.7172C28.2248-82.7172 11.2148-65.7072 11.2148-44.8341ZM17.5733-44.8341C17.5733-62.2163 31.7157-76.3587 49.1256-76.3587C66.4732-76.3587 80.6502-62.2163 80.6502-44.8341C80.6502-27.4589 66.4732-13.2818 49.1256-13.2818C31.7157-13.2818 17.5733-27.4589 17.5733-44.8341Z"/>
  </g>
  <g id="Thin-M" transform="matrix(1 0 0 1 799.044 1126)">
   <path d="M11.2148-45.3772C11.2148-25.2685 27.6138-8.88161 47.7225-8.88161C56.3851-8.88161 64.312-11.9007 70.5785-16.9902L97.8296 10.3232C98.3836 10.9154 99.2491 11.3253 100.177 11.3253C102.282 11.3253 103.541 9.74063 103.541 7.8872C103.541 7.04793 103.207 6.24471 102.601 5.56384L75.3739-21.6752C80.8492-28.028 84.1678-36.3288 84.1678-45.3772C84.1678-65.4356 67.7809-81.8346 47.7225-81.8346C27.6138-81.8346 11.2148-65.4356 11.2148-45.3772ZM14.9255-45.3772C14.9255-63.3705 29.6789-78.1239 47.7225-78.1239C65.7037-78.1239 80.4691-63.3705 80.4691-45.3772C80.4691-27.3457 65.7037-12.5803 47.7225-12.5803C29.6789-12.5803 14.9255-27.3457 14.9255-45.3772Z"/>
  </g>
  <g id="Ultralight-M" transform="matrix(1 0 0 1 502.78 1126)">
   <path d="M11.2148-45.6554C11.2148-25.9524 27.3008-9.86687 47.0038-9.86687C55.7244-9.86687 63.6977-12.9787 69.9294-18.2073L98.1194 10.045C98.4995 10.4866 99.1912 10.8617 99.9451 10.8617C101.702 10.8617 102.648 9.54358 102.648 8.09584C102.648 7.46522 102.396 6.83586 101.894 6.27091L73.7047-21.9186C79.3075-28.2135 82.7305-36.5606 82.7305-45.6554C82.7305-65.2966 66.645-81.3825 47.0038-81.3825C27.3008-81.3825 11.2148-65.2966 11.2148-45.6554ZM13.5694-45.6554C13.5694-63.9616 28.6357-79.028 47.0038-79.028C65.3096-79.028 80.3764-63.9616 80.3764-45.6554C80.3764-27.2877 65.3096-12.221 47.0038-12.221C28.6357-12.221 13.5694-27.2877 13.5694-45.6554Z"/>
  </g>
  <g id="Black-S" transform="matrix(1 0 0 1 2884.91 696)">
   <path d="M8.78906-41.0645C8.78906-22.168 24.0723-6.88477 42.9688-6.88477C47.998-6.88477 52.7344-7.95898 57.0312-9.86328L68.3594 1.46484C70.5566 3.66211 73.584 4.73633 76.6602 4.73633C83.2031 4.73633 88.1836-0.292969 88.1836-6.78711C88.1836-9.76562 87.1582-12.6953 84.8633-14.9902L73.7305-26.123C75.9277-30.6152 77.1484-35.6934 77.1484-41.0645C77.1484-59.9609 61.8652-75.2441 42.9688-75.2441C24.0723-75.2441 8.78906-59.9609 8.78906-41.0645ZM24.7559-41.0645C24.7559-51.123 32.9102-59.2773 42.9688-59.2773C53.0273-59.2773 61.1816-51.123 61.1816-41.0645C61.1816-31.0059 53.0273-22.8516 42.9688-22.8516C32.9102-22.8516 24.7559-31.0059 24.7559-41.0645Z"/>
  </g>
  <g id="Heavy-S" transform="matrix(1 0 0 1 2588.68 696)">
   <path d="M8.78906-41.341C8.78906-22.8594 23.7496-7.91044 42.2312-7.91044C47.6293-7.91044 52.6768-9.21515 57.1465-11.4998L70.088 1.45332C72.0087 3.36247 74.6212 4.28687 77.2825 4.28687C82.9496 4.28687 87.2386-0.0624794 87.2386-5.69229C87.2386-8.29049 86.3284-10.8168 84.3793-12.7891L71.61-25.5699C74.1991-30.2234 75.6618-35.6012 75.6618-41.341C75.6618-59.8226 60.7128-74.7832 42.2312-74.7832C23.7496-74.7832 8.78906-59.8226 8.78906-41.341ZM22.7621-41.341C22.7621-52.1026 31.4696-60.8101 42.2312-60.8101C52.9812-60.8101 61.7002-52.1026 61.7002-41.341C61.7002-30.591 52.9812-21.872 42.2312-21.872C31.4696-21.872 22.7621-30.591 22.7621-41.341Z"/>
  </g>
  <g id="Bold-S" transform="matrix(1 0 0 1 2292.49 696)">
   <path d="M8.78906-41.6504C8.78906-23.6328 23.3887-9.05762 41.4062-9.05762C47.2168-9.05762 52.6123-10.6201 57.2754-13.3301L72.0215 1.44043C73.6328 3.02734 75.7812 3.78418 77.9785 3.78418C82.666 3.78418 86.1816 0.195312 86.1816-4.46777C86.1816-6.64062 85.4004-8.71582 83.8379-10.3271L69.2383-24.9512C72.2656-29.7852 73.999-35.498 73.999-41.6504C73.999-59.668 59.4238-74.2676 41.4062-74.2676C23.3887-74.2676 8.78906-59.668 8.78906-41.6504ZM20.5322-41.6504C20.5322-53.1982 29.8584-62.5244 41.4062-62.5244C52.9297-62.5244 62.2803-53.1982 62.2803-41.6504C62.2803-30.127 52.9297-20.7764 41.4062-20.7764C29.8584-20.7764 20.5322-30.127 20.5322-41.6504Z"/>
  </g>
  <g id="Semibold-S" transform="matrix(1 0 0 1 1996.15 696)">
   <path d="M8.78906-41.8637C8.78906-24.166 23.1398-9.84854 40.8375-9.84854C46.9324-9.84854 52.5679-11.5888 57.3643-14.592L73.3545 1.43154C74.7525 2.79629 76.5811 3.4376 78.4584 3.4376C82.4705 3.4376 85.4529 0.373047 85.4529-3.62354C85.4529-5.50312 84.7605-7.26729 83.4646-8.62979L67.6031-24.5246C70.9326-29.483 72.8526-35.427 72.8526-41.8637C72.8526-59.5613 58.5352-73.9121 40.8375-73.9121C23.1398-73.9121 8.78906-59.5613 8.78906-41.8637ZM18.9948-41.8637C18.9948-53.9536 28.7476-63.7063 40.8375-63.7063C52.8941-63.7063 62.6802-53.9536 62.6802-41.8637C62.6802-29.807 52.8941-20.021 40.8375-20.021C28.7476-20.021 18.9948-29.807 18.9948-41.8637Z"/>
  </g>
  <g id="Medium-S" transform="matrix(1 0 0 1 1699.71 696)">
   <path d="M8.78906-42.0254C8.78906-24.5703 22.9512-10.4482 40.4062-10.4482C46.7168-10.4482 52.5342-12.3232 57.4316-15.5488L74.3652 1.4248C75.6016 2.62109 77.1875 3.1748 78.8223 3.1748C82.3223 3.1748 84.9004 0.507812 84.9004-2.9834C84.9004-4.64062 84.2754-6.16895 83.1816-7.34277L66.3633-24.2012C69.9219-29.2539 71.9834-35.373 71.9834-42.0254C71.9834-59.4805 57.8613-73.6426 40.4062-73.6426C22.9512-73.6426 8.78906-59.4805 8.78906-42.0254ZM17.8291-42.0254C17.8291-54.5264 27.9053-64.6025 40.4062-64.6025C52.8672-64.6025 62.9834-54.5264 62.9834-42.0254C62.9834-29.5645 52.8672-19.4482 40.4062-19.4482C27.9053-19.4482 17.8291-29.5645 17.8291-42.0254Z"/>
  </g>
  <g id="Regular-S" transform="matrix(1 0 0 1 1403.36 696)">
   <path d="M8.78906-42.2363C8.78906-25.0977 22.7051-11.2305 39.8438-11.2305C46.4355-11.2305 52.4902-13.2812 57.5195-16.7969L75.6836 1.41602C76.709 2.39258 77.9785 2.83203 79.2969 2.83203C82.1289 2.83203 84.1797 0.683594 84.1797-2.14844C84.1797-3.51562 83.6426-4.73633 82.8125-5.66406L64.7461-23.7793C68.6035-28.9551 70.8496-35.3027 70.8496-42.2363C70.8496-59.375 56.9824-73.291 39.8438-73.291C22.7051-73.291 8.78906-59.375 8.78906-42.2363ZM16.3086-42.2363C16.3086-55.2734 26.8066-65.7715 39.8438-65.7715C52.832-65.7715 63.3789-55.2734 63.3789-42.2363C63.3789-29.248 52.832-18.7012 39.8438-18.7012C26.8066-18.7012 16.3086-29.248 16.3086-42.2363Z"/>
  </g>
  <g id="Light-S" transform="matrix(1 0 0 1 1107.23 696)">
   <path d="M8.78906-42.5996C8.78906-25.9907 22.2964-12.5171 38.9053-12.5171C45.5728-12.5171 51.688-14.689 56.6719-18.3862L76.062 1.05274C76.8604 1.83252 77.9028 2.22657 78.9941 2.22657C81.3721 2.22657 83.0142 0.426272 83.0142-1.87598C83.0142-2.97071 82.583-3.96436 81.8892-4.74073L62.5664-24.0972C66.5903-29.1973 68.9727-35.6055 68.9727-42.5996C68.9727-59.1934 55.499-72.7007 38.9053-72.7007C22.2964-72.7007 8.78906-59.1934 8.78906-42.5996ZM14.5376-42.5996C14.5376-56.0454 25.4443-66.9521 38.9053-66.9521C52.3174-66.9521 63.2578-56.0454 63.2578-42.5996C63.2578-29.1724 52.3174-18.2319 38.9053-18.2319C25.4443-18.2319 14.5376-29.1724 14.5376-42.5996Z"/>
  </g>
  <g id="Thin-S" transform="matrix(1 0 0 1 811.291 696)">
   <path d="M8.78906-43.0801C8.78906-27.1719 21.7559-14.2187 37.6641-14.2187C44.4317-14.2187 50.627-16.5508 55.5508-20.4883L76.5625 0.572272C77.0605 1.09181 77.8027 1.42579 78.5938 1.42579C80.3711 1.42579 81.4727 0.0859422 81.4727-1.51563C81.4727-2.25001 81.1817-2.94337 80.668-3.51955L59.6836-24.5176C63.9278-29.5176 66.4903-36.0059 66.4903-43.0801C66.4903-58.9531 53.5371-71.9199 37.6641-71.9199C21.7559-71.9199 8.78906-58.9531 8.78906-43.0801ZM12.1953-43.0801C12.1953-57.0664 23.6426-68.5137 37.6641-68.5137C51.6367-68.5137 63.0977-57.0664 63.0977-43.0801C63.0977-29.0723 51.6367-17.6113 37.6641-17.6113C23.6426-17.6113 12.1953-29.0723 12.1953-43.0801Z"/>
  </g>
  <g id="Ultralight-S" transform="matrix(1 0 0 1 514.975 696)">
   <path d="M8.78906-43.3262C8.78906-27.7768 21.479-15.0903 37.0283-15.0903C43.8472-15.0903 50.0835-17.5044 54.9766-21.5649L76.8188 0.32618C77.1631 0.712416 77.7515 1.01564 78.3887 1.01564C79.8584 1.01564 80.6831-0.0883728 80.6831-1.33106C80.6831-1.88087 80.4639-2.42043 80.0425-2.89406L58.2071-24.7329C62.564-29.6816 65.2188-36.2109 65.2188-43.3262C65.2188-58.8301 52.5323-71.52 37.0283-71.52C21.479-71.52 8.78906-58.8301 8.78906-43.3262ZM10.9956-43.3262C10.9956-57.5893 22.7198-69.3134 37.0283-69.3134C51.2881-69.3134 63.0156-57.5893 63.0156-43.3262C63.0156-29.021 51.2881-17.2935 37.0283-17.2935C22.7198-17.2935 10.9956-29.021 10.9956-43.3262Z"/>
  </g>
 </g>
</svg>
